<svg width="713" height="714" viewBox="0 0 713 714" fill="none" xmlns="http://www.w3.org/2000/svg">
<path d="M457.53 256.179C510.382 309.03 543.33 371.744 553.896 430.393C564.462 489.045 552.64 543.574 516.041 580.173C479.442 616.771 424.913 628.594 366.262 618.027C307.613 607.462 244.899 574.513 192.047 521.662C139.195 468.81 106.247 406.096 95.6813 347.447C85.1152 288.796 96.9374 234.266 133.536 197.668C170.135 161.069 224.664 149.247 283.315 159.813C341.964 170.379 404.678 203.327 457.53 256.179Z" stroke="black" stroke-width="1.1237"/>
<path d="M489.241 224.467C542.093 277.319 575.041 340.033 585.607 398.682C596.173 457.334 584.351 511.863 547.752 548.461C511.154 585.06 456.625 596.882 397.973 586.316C339.324 575.751 276.61 542.802 223.758 489.95C170.907 437.099 137.958 374.385 127.393 315.736C116.827 257.084 128.649 202.555 165.247 165.956C201.846 129.358 256.375 117.536 315.027 128.102C373.676 138.667 436.39 171.616 489.241 224.467Z" stroke="black" stroke-width="1.1237"/>
<path d="M520.953 192.756C573.805 245.608 606.753 308.322 617.319 366.971C627.885 425.622 616.063 480.151 579.464 516.75C542.865 553.349 488.336 565.171 429.685 554.605C371.036 544.039 308.322 511.091 255.47 458.239C202.618 405.387 169.67 342.673 159.104 284.024C148.538 225.373 160.36 170.844 196.959 134.245C233.558 97.6463 288.087 85.8241 346.738 96.3902C405.387 106.956 468.101 139.904 520.953 192.756Z" stroke="black" stroke-width="1.1237"/>
</svg>
